<svg width="117" height="32" viewBox="0 0 117 32" fill="none" xmlns="http://www.w3.org/2000/svg">
<path d="M45.792 10.436V12.47H42.444V23H39.924V12.47H36.576V10.436H45.792ZM48.9087 11.84C48.4647 11.84 48.0927 11.702 47.7927 11.426C47.5047 11.138 47.3607 10.784 47.3607 10.364C47.3607 9.944 47.5047 9.596 47.7927 9.32C48.0927 9.032 48.4647 8.888 48.9087 8.888C49.3527 8.888 49.7187 9.032 50.0067 9.32C50.3067 9.596 50.4567 9.944 50.4567 10.364C50.4567 10.784 50.3067 11.138 50.0067 11.426C49.7187 11.702 49.3527 11.84 48.9087 11.84ZM50.1507 13.028V23H47.6307V13.028H50.1507ZM65.0244 12.884C66.2484 12.884 67.2324 13.262 67.9764 14.018C68.7324 14.762 69.1104 15.806 69.1104 17.15V23H66.5904V17.492C66.5904 16.712 66.3924 16.118 65.9964 15.71C65.6004 15.29 65.0604 15.08 64.3764 15.08C63.6924 15.08 63.1464 15.29 62.7384 15.71C62.3424 16.118 62.1444 16.712 62.1444 17.492V23H59.6244V17.492C59.6244 16.712 59.4264 16.118 59.0304 15.71C58.6344 15.29 58.0944 15.08 57.4104 15.08C56.7144 15.08 56.1624 15.29 55.7544 15.71C55.3584 16.118 55.1604 16.712 55.1604 17.492V23H52.6404V13.028H55.1604V14.234C55.4844 13.814 55.8984 13.484 56.4024 13.244C56.9184 13.004 57.4824 12.884 58.0944 12.884C58.8744 12.884 59.5704 13.052 60.1824 13.388C60.7944 13.712 61.2684 14.18 61.6044 14.792C61.9284 14.216 62.3964 13.754 63.0084 13.406C63.6324 13.058 64.3044 12.884 65.0244 12.884ZM80.7718 17.798C80.7718 18.158 80.7478 18.482 80.6998 18.77H73.4098C73.4698 19.49 73.7218 20.054 74.1658 20.462C74.6098 20.87 75.1558 21.074 75.8038 21.074C76.7398 21.074 77.4058 20.672 77.8018 19.868H80.5198C80.2318 20.828 79.6798 21.62 78.8638 22.244C78.0478 22.856 77.0458 23.162 75.8578 23.162C74.8978 23.162 74.0338 22.952 73.2658 22.532C72.5098 22.1 71.9158 21.494 71.4838 20.714C71.0638 19.934 70.8538 19.034 70.8538 18.014C70.8538 16.982 71.0638 16.076 71.4838 15.296C71.9038 14.516 72.4918 13.916 73.2478 13.496C74.0038 13.076 74.8738 12.866 75.8578 12.866C76.8058 12.866 77.6518 13.07 78.3958 13.478C79.1518 13.886 79.7338 14.468 80.1418 15.224C80.5618 15.968 80.7718 16.826 80.7718 17.798ZM78.1618 17.078C78.1498 16.43 77.9158 15.914 77.4598 15.53C77.0038 15.134 76.4458 14.936 75.7858 14.936C75.1618 14.936 74.6338 15.128 74.2018 15.512C73.7818 15.884 73.5238 16.406 73.4278 17.078H78.1618Z" fill="white"/>
<path d="M91.1611 10.436V12.47H87.8131V23H85.2931V12.47H81.9451V10.436H91.1611ZM92.3518 17.978C92.3518 16.97 92.5498 16.076 92.9458 15.296C93.3538 14.516 93.8998 13.916 94.5838 13.496C95.2798 13.076 96.0538 12.866 96.9058 12.866C97.6498 12.866 98.2978 13.016 98.8498 13.316C99.4138 13.616 99.8638 13.994 100.2 14.45V13.028H102.738V23H100.2V21.542C99.8758 22.01 99.4258 22.4 98.8498 22.712C98.2858 23.012 97.6318 23.162 96.8878 23.162C96.0478 23.162 95.2798 22.946 94.5838 22.514C93.8998 22.082 93.3538 21.476 92.9458 20.696C92.5498 19.904 92.3518 18.998 92.3518 17.978ZM100.2 18.014C100.2 17.402 100.08 16.88 99.8398 16.448C99.5998 16.004 99.2758 15.668 98.8678 15.44C98.4598 15.2 98.0218 15.08 97.5538 15.08C97.0858 15.08 96.6538 15.194 96.2578 15.422C95.8618 15.65 95.5378 15.986 95.2858 16.43C95.0458 16.862 94.9258 17.378 94.9258 17.978C94.9258 18.578 95.0458 19.106 95.2858 19.562C95.5378 20.006 95.8618 20.348 96.2578 20.588C96.6658 20.828 97.0978 20.948 97.5538 20.948C98.0218 20.948 98.4598 20.834 98.8678 20.606C99.2758 20.366 99.5998 20.03 99.8398 19.598C100.08 19.154 100.2 18.626 100.2 18.014ZM107.719 14.486C108.043 14.006 108.487 13.616 109.051 13.316C109.627 13.016 110.281 12.866 111.013 12.866C111.865 12.866 112.633 13.076 113.317 13.496C114.013 13.916 114.559 14.516 114.955 15.296C115.363 16.064 115.567 16.958 115.567 17.978C115.567 18.998 115.363 19.904 114.955 20.696C114.559 21.476 114.013 22.082 113.317 22.514C112.633 22.946 111.865 23.162 111.013 23.162C110.269 23.162 109.615 23.018 109.051 22.73C108.499 22.43 108.055 22.046 107.719 21.578V23H105.199V9.68H107.719V14.486ZM112.993 17.978C112.993 17.378 112.867 16.862 112.615 16.43C112.375 15.986 112.051 15.65 111.643 15.422C111.247 15.194 110.815 15.08 110.347 15.08C109.891 15.08 109.459 15.2 109.051 15.44C108.655 15.668 108.331 16.004 108.079 16.448C107.839 16.892 107.719 17.414 107.719 18.014C107.719 18.614 107.839 19.136 108.079 19.58C108.331 20.024 108.655 20.366 109.051 20.606C109.459 20.834 109.891 20.948 110.347 20.948C110.815 20.948 111.247 20.828 111.643 20.588C112.051 20.348 112.375 20.006 112.615 19.562C112.867 19.118 112.993 18.59 112.993 17.978Z" fill="#11B4A4"/>
<path d="M10.5277 0.964918C7.55402 2.04724 4.96809 3.98705 3.09689 6.53904C1.22569 9.09104 0.153263 12.1406 0.0152286 15.3021C-0.122806 18.4636 0.67975 21.595 2.32141 24.3004C3.96307 27.0057 6.37009 29.1635 9.2381 30.5009C12.1061 31.8383 15.3063 32.2952 18.434 31.8138C21.5616 31.3324 24.4763 29.9343 26.8094 27.7964C29.1426 25.6585 30.7893 22.8768 31.5415 19.803C32.2936 16.7292 32.1174 13.5013 31.0351 10.5277L23.5175 13.2638C24.0587 14.7507 24.1468 16.3646 23.7707 17.9015C23.3947 19.4384 22.5713 20.8293 21.4047 21.8982C20.2382 22.9672 18.7808 23.6662 17.217 23.9069C15.6531 24.1476 14.0531 23.9191 12.6191 23.2505C11.185 22.5818 9.98153 21.5029 9.1607 20.1502C8.33988 18.7975 7.9386 17.2318 8.00761 15.651C8.07663 14.0703 8.61284 12.5455 9.54844 11.2695C10.484 9.99352 11.777 9.02362 13.2638 8.48246L10.5277 0.964918Z" fill="white"/>
<path d="M16 0C13.8989 -2.5056e-08 11.8183 0.413852 9.87706 1.21793C7.93586 2.022 6.17203 3.20055 4.68629 4.68629C3.20055 6.17203 2.022 7.93586 1.21793 9.87707C0.413852 11.8183 -3.17265e-07 13.8989 0 16L8 16C8 14.9494 8.20693 13.9091 8.60896 12.9385C9.011 11.9679 9.60028 11.086 10.3431 10.3431C11.086 9.60028 11.9679 9.011 12.9385 8.60896C13.9091 8.20693 14.9494 8 16 8L16 0Z" fill="#11B4A4"/>
<circle cx="16" cy="16" r="5" fill="#11B4A4"/>
<path d="M21 16C21 15.3434 20.8707 14.6932 20.6194 14.0866C20.3681 13.48 19.9998 12.9288 19.5355 12.4645C19.0712 12.0002 18.52 11.6319 17.9134 11.3806C17.3068 11.1293 16.6566 11 16 11C15.3434 11 14.6932 11.1293 14.0866 11.3806C13.48 11.6319 12.9288 12.0002 12.4645 12.4645C12.0002 12.9288 11.6319 13.48 11.3806 14.0866C11.1293 14.6932 11 15.3434 11 16L16 16H21Z" fill="white"/>
</svg>
